<?xml version="1.0" encoding="UTF-8" standalone="no"?>
<!-- Created with Inkscape (http://www.inkscape.org/) -->

<svg
   xmlns:dc="http://purl.org/dc/elements/1.1/"
   xmlns:cc="http://creativecommons.org/ns#"
   xmlns:rdf="http://www.w3.org/1999/02/22-rdf-syntax-ns#"
   xmlns:svg="http://www.w3.org/2000/svg"
   xmlns="http://www.w3.org/2000/svg"
   xmlns:sodipodi="http://sodipodi.sourceforge.net/DTD/sodipodi-0.dtd"
   xmlns:inkscape="http://www.inkscape.org/namespaces/inkscape"
   width="500"
   height="240"
   id="svg2"
   version="1.1"
   inkscape:version="0.48.4 r9939"
   sodipodi:docname="The Legend of Zelda Ocarina of Time.svg">
  <title
     id="title4134">The Legend of Zelda Ocarina of Time</title>
  <defs
     id="defs4">
    <inkscape:perspective
       id="perspective126"
       inkscape:persp3d-origin="331.5 : 99.333333 : 1"
       inkscape:vp_z="663 : 149 : 1"
       inkscape:vp_y="0 : 1000 : 0"
       inkscape:vp_x="0 : 149 : 1"
       sodipodi:type="inkscape:persp3d" />
    <inkscape:perspective
       id="perspective126-7"
       inkscape:persp3d-origin="331.5 : 99.333333 : 1"
       inkscape:vp_z="663 : 149 : 1"
       inkscape:vp_y="0 : 1000 : 0"
       inkscape:vp_x="0 : 149 : 1"
       sodipodi:type="inkscape:persp3d" />
  </defs>
  <sodipodi:namedview
     id="base"
     pagecolor="#ffffff"
     bordercolor="#666666"
     borderopacity="1.0"
     inkscape:pageopacity="0.0"
     inkscape:pageshadow="2"
     inkscape:zoom="0.49497475"
     inkscape:cx="386.52874"
     inkscape:cy="202.70403"
     inkscape:document-units="px"
     inkscape:current-layer="layer1"
     showgrid="false"
     inkscape:window-width="1366"
     inkscape:window-height="706"
     inkscape:window-x="-8"
     inkscape:window-y="-8"
     inkscape:window-maximized="1"
     fit-margin-top="0"
     fit-margin-left="0"
     fit-margin-right="0"
     fit-margin-bottom="0" />
  <metadata
     id="metadata7">
    <rdf:RDF>
      <cc:Work
         rdf:about="">
        <dc:format>image/svg+xml</dc:format>
        <dc:type
           rdf:resource="http://purl.org/dc/dcmitype/StillImage" />
        <dc:title>The Legend of Zelda Majora's Mask</dc:title>
      </cc:Work>
    </rdf:RDF>
  </metadata>
  <g
     inkscape:label="Layer 1"
     inkscape:groupmode="layer"
     id="layer1"
     transform="translate(-99.683728,-369.69032)">
    <path
       inkscape:connector-curvature="0"
       d="m 489.52281,409.88818 11.12602,14.28898 -27.64828,119.8113 -14.46186,14.43306 40.63846,-0.6484 -9.47773,-10.99891 6.47547,-35.90257 21.72225,0.19213 5.90642,35.13407 -9.24225,12.31974 49.91997,-0.45628 -12.38187,-14.43307 -29.10037,-133.25976 -33.47623,-0.48029 z m 17.90147,52.89888 7.6863,33.27745 -14.5317,-0.57636 6.8454,-32.70109 z"
       style="fill:#e01a18;fill-opacity:1"
       id="path4" />
    <path
       inkscape:connector-curvature="0"
       d="m 425.88912,412.21112 -30.24627,-1.35851 11.51559,13.67478 0.15136,121.31077 -15.52966,15.01944 40.18122,-2.16125 c 70.34296,-16.15553 58.6174,-149.44334 -6.07224,-146.48523 z m 5.35454,11.84633 c 23.66557,0.91262 37.10917,99.65866 0.90264,121.54047 l -0.90264,-121.54047 z"
       style="fill:#e01a18;fill-opacity:1"
       id="path6" />
    <path
       inkscape:connector-curvature="0"
       d="m 126.58259,385.08058 -13.81433,46.01292 36.18412,-34.77386 71.5049,0.86453 -106.90413,198.94108 129.96069,2.52158 11.56057,-38.58201 68.88935,-0.9847 -0.76805,-67.02935 -16.90902,52.82624 -21.20381,-0.096 0.15137,-52.79917 11.83536,-1.40654 11.4259,15.93915 -0.0785,-46.69875 -11.71739,15.05396 -11.44291,-0.26755 -0.0169,-50.51434 20.65436,-1.50258 17.83407,44.94936 0.5382,-57.34101 -73.62396,0.65869 9.5983,14.62851 0.38122,121.0156 -34.35646,37.52519 -77.86262,0.48039 106.74713,-199.32532 -128.56748,-0.0961 z"
       style="fill:#e01a18;fill-opacity:1"
       id="path8" />
    <path
       inkscape:connector-curvature="0"
       d="m 325.33762,411.41487 51.70251,-1.02918 -12.05384,12.99564 0.54383,121.02922 11.37563,-0.37738 16.37645,-54.32893 0.68955,68.3467 -69.43589,-0.2813 15.18784,-13.02297 -0.84094,-121.72225 -13.54514,-11.60955 z"
       style="fill:#e01a18;fill-opacity:1"
       id="path10" />
    <path
       inkscape:connector-curvature="0"
       d="m 230.38075,406.10406 -25.30764,59.09087 -10.20375,6.05181 35.51139,-65.14268 z"
       style="fill:#ea9d9d;fill-opacity:1"
       id="path36" />
    <path
       inkscape:connector-curvature="0"
       d="m 230.39748,405.9738 -35.05719,64.31233 -0.94186,-12.29573 35.99905,-52.0166 z"
       style="fill:#7a0606;fill-opacity:1"
       id="path38" />
    <path
       inkscape:connector-curvature="0"
       d="m 327.91082,406.50204 c 17.11094,1.24878 34.22187,0.0961 51.3328,0.57636 -1.64832,2.01727 -3.37508,4.1306 -5.65134,4.99515 -14.7562,-0.28818 -29.59092,-0.19213 -44.34714,-0.0961 -0.31397,-0.0961 -0.86338,-0.38425 -1.09886,-0.57636 -0.0785,-1.63303 -0.15698,-3.26606 -0.23546,-4.89907 z"
       style="fill:#ea9d9d;fill-opacity:1"
       id="path40" />
    <path
       inkscape:connector-curvature="0"
       d="m 379.79304,406.40599 1.32157,5.63345 -13.01665,12.04166 0.47094,118.15425 -5.0234,4.03454 -0.62791,-125.98294 10.67469,-8.2134 6.20076,-5.66756 z"
       style="fill:#7a0606;fill-opacity:1"
       id="path42" />
    <path
       inkscape:connector-curvature="0"
       d="m 393.21494,406.98234 c 19.54414,0.4803 39.06884,-2.49756 57.7496,6.14787 l -3.51267,4.61091 c -15.38413,-8.26121 -32.57356,-5.09123 -48.82108,-5.76364 l -8.94794,0.0961 3.53209,-5.09121 z"
       style="fill:#ea9d9d;fill-opacity:1"
       id="path44" />
    <path
       inkscape:connector-curvature="0"
       d="m 487.77356,407.0784 37.54093,0 -3.92453,4.22666 -36.4196,0 2.8032,-4.22666 z"
       style="fill:#ea9d9d;fill-opacity:1"
       id="path46" />
    <path
       inkscape:connector-curvature="0"
       d="m 525.31449,407.0784 0.54945,-0.76848 27.94262,133.90817 14.52076,17.19481 -0.31398,4.89908 -56.27768,0.48029 -1.25588,-5.5715 7.29963,-0.38425 43.24828,-0.19212 -10.98867,-11.33511 -28.64906,-133.8121 3.92453,-4.41879 z"
       style="fill:#7a0606;fill-opacity:1"
       id="path48" />
    <path
       inkscape:connector-curvature="0"
       d="m 327.91082,406.50204 0.23546,4.89909 12.40151,10.56664 -5.41585,1.15272 -7.06415,-5.18727 0,52.16079 -9.0264,0.0961 3.92451,-4.03455 -0.0784,-54.27412 5.02339,-5.37936 z"
       style="fill:#7a0606;fill-opacity:1"
       id="path50" />
    <path
       inkscape:connector-curvature="0"
       d="m 389.68285,412.07355 c 2.98264,0 5.96528,-0.0961 8.94794,-0.0961 3.21812,4.1306 7.14264,7.3006 10.59622,11.14302 -1.80529,1.4409 -3.68907,2.59362 -5.80831,3.16998 -4.47396,-4.99514 -9.10489,-9.50997 -13.73585,-14.21693 z"
       style="fill:#7a0606;fill-opacity:1"
       id="path52" />
    <path
       inkscape:connector-curvature="0"
       d="m 485.45253,411.30506 7.05292,0 10.20376,12.58391 -5.20282,0.37737 -12.05386,-12.96128 z"
       style="fill:#7a0606;fill-opacity:1"
       id="path54" />
    <path
       inkscape:connector-curvature="0"
       d="m 497.69706,424.5614 5.01215,-0.67243 -27.86413,121.51637 -12.16601,11.04695 -7.5351,6.33998 -0.86339,-5.66756 16.95396,-15.84996 26.46252,-116.71335 z"
       style="fill:#ea9d9d;fill-opacity:1"
       id="path56" />
    <path
       inkscape:connector-curvature="0"
       d="m 447.45187,417.74112 3.54043,-4.51826 c 24.64603,12.67998 32.72224,48.41783 30.52447,78.48474 -0.54943,14.88935 -3.06111,30.06689 -9.81131,42.74685 -10.04679,20.65299 -30.92527,28.52995 -49.60601,28.1457 -54.86487,0.38425 -109.72977,-0.0961 -164.67314,0.19212 l -11.06716,38.61625 -135.94562,0 -2.74717,-5.57149 134.00539,0.86458 12.49714,-40.47564 68.87551,0.32238 0,-62.91955 5.25886,-4.41878 -0.23547,61.67077 -1.17736,5.87889 65.93204,-0.11526 0,-62.43923 5.25888,-5.95575 0,59.55744 -2.19773,9.12574 38.14638,-0.76849 c 17.18944,-1.82514 33.35849,-16.33025 38.06792,-36.98325 8.71245,-34.67779 6.35774,-84.82131 -24.64605,-101.43974 z"
       style="fill:#7a0606;fill-opacity:1"
       id="path58" />
    <path
       inkscape:connector-curvature="0"
       d="m 283.17119,420.4308 24.6796,-0.007 -3.80109,4.71387 -15.61961,0 -0.15702,0.76849 0,46.7814 -4.8664,4.41879 -0.23548,-56.67562 z"
       style="fill:#7a0606;fill-opacity:1"
       id="path60" />
    <path
       inkscape:connector-curvature="0"
       d="m 307.50328,420.33473 15.46262,45.82079 -3.92451,4.03456 -0.23547,0.1921 -14.75622,-45.24443 3.45358,-4.80302 z"
       style="fill:#ea9d9d;fill-opacity:1"
       id="path62" />
    <path
       inkscape:connector-curvature="0"
       d="m 427.90776,420.4308 c 23.93961,4.6109 29.66941,40.63354 29.66941,65.32105 -0.54943,23.82298 -5.96527,58.50077 -28.88451,63.01561 l 5.02339,-7.10848 c 6.6717,-2.68969 9.88979,-11.33511 12.55848,-18.6357 8.08454,-26.51266 8.08454,-57.82835 -2.19773,-83.47646 -2.4332,-5.0912 -5.41585,-10.85484 -10.43925,-12.3918 l -5.72979,-6.72422 z"
       style="fill:#ea9d9d;fill-opacity:1"
       id="path64" />
    <path
       inkscape:connector-curvature="0"
       d="m 428.3002,420.9111 5.33735,6.24392 0.0785,114.50396 -4.55244,6.43605 -0.8634,-127.18393 z"
       style="fill:#7a0606;fill-opacity:1"
       id="path68" />
    <path
       inkscape:connector-curvature="0"
       d="m 340.54779,421.96777 0.78489,123.34152 -14.20679,11.52723 0.9419,-5.95573 8.00603,-7.4927 -0.94188,-120.2676 5.41585,-1.15272 z"
       style="fill:#ea9d9d;fill-opacity:1"
       id="path70" />
    <path
       inkscape:connector-curvature="0"
       d="m 403.4187,426.29048 5.80831,-3.16999 -0.0786,124.68637 -13.26488,9.12574 2.19773,-9.12574 5.96527,-3.6503 -0.62791,-117.86608 z"
       style="fill:#ea9d9d;fill-opacity:1"
       id="path74" />
    <path
       inkscape:connector-curvature="0"
       d="m 257.97575,425.32987 5.02337,-1.53695 -0.0784,124.11 -36.65505,36.11866 -77.86263,0.48037 0.23546,-1.05667 8.63397,-4.99521 67.65884,0.19216 33.20151,-34.19748 -0.15701,-119.11488 z"
       style="fill:#ea9d9d;fill-opacity:1"
       id="path76" />
    <path
       inkscape:connector-curvature="0"
       d="m 508.04658,452.4189 9.81133,46.01293 -20.87849,0 6.35773,-5.47545 8.55547,0.57635 -4.23849,-19.21206 0.39245,-21.90177 z"
       style="fill:#ea9d9d;fill-opacity:1"
       id="path82" />
    <path
       inkscape:connector-curvature="0"
       d="m 508.04658,453.47556 -0.39245,20.84511 -4.31698,18.63571 -6.04378,5.4617 10.75321,-44.94252 z"
       style="fill:#7a0606;fill-opacity:1"
       id="path84" />
    <path
       inkscape:connector-curvature="0"
       d="m 307.89575,454.91647 5.18035,2.11332 -5.80831,6.72423 -9.41886,13.92877 -14.44226,-0.57638 4.8664,-4.41877 7.61359,0.0961 12.00909,-17.86723 z"
       style="fill:#d39eed;fill-opacity:1"
       id="path86" />
    <path
       inkscape:connector-curvature="0"
       d="m 307.26779,463.75402 c 1.72681,-2.49757 3.76756,-4.61089 5.80831,-6.72423 0,17.483 0.0786,34.96599 0,52.44898 -0.0785,0.28816 -0.31397,0.76847 -0.39244,1.05665 -0.70644,0.28819 -1.49133,0.57638 -2.27624,0.86455 -1.33436,0.4803 -2.66869,0.76848 -4.00301,1.15273 -3.53209,-6.33999 -7.14264,-12.58391 -10.67472,-18.9239 -2.3547,-0.0961 -4.63095,-0.0961 -6.98566,-0.0961 l -0.8634,0 c 0,16.13816 0.15699,32.27631 0,48.41445 -1.64829,1.63301 -3.2966,3.16999 -4.86639,4.80301 -0.0786,-19.78842 -0.0786,-39.57687 -0.0786,-59.26926 4.78792,0.0961 9.57586,0.0961 14.36378,0 3.92452,4.70698 6.5932,10.56665 10.04677,15.65785 0.0785,-13.16027 0.157,-26.32054 -0.0785,-39.38476 z"
       style="fill:#7a0606;fill-opacity:1"
       id="path88" />
    <path
       inkscape:connector-curvature="0"
       d="m 178.54331,486.52034 10.51774,-5.0912 0.8634,11.52724 -9.81133,4.89907 -1.56981,-11.33511 z"
       style="fill:#7a0606;fill-opacity:1"
       id="path90" />
    <path
       inkscape:connector-curvature="0"
       d="m 389.13341,488.63367 8.80762,-0.30857 -5.11856,5.88007 -15.22717,52.64109 -14.36376,0.0961 5.33736,-4.70696 5.57283,-0.38424 14.99168,-53.21745 z"
       style="fill:#d39eed;fill-opacity:1"
       id="path92" />
    <path
       inkscape:connector-curvature="0"
       d="m 319.19834,489.59427 8.85821,-0.0892 -5.01215,4.1237 -15.14865,53.21744 -24.88151,0 0,-0.0961 4.86639,-4.803 17.11095,-0.2882 14.20676,-52.06472 z"
       style="fill:#ea9d9d;fill-opacity:1"
       id="path94" />
    <path
       inkscape:connector-curvature="0"
       d="m 180.11312,497.85545 4.08153,-7.68482 5.41586,3.07394 -9.81134,5.18726 0.31395,-0.57638 z"
       style="fill:#ea9d9d;fill-opacity:1"
       id="path96" />
    <path
       inkscape:connector-curvature="0"
       d="m 495.01715,508.61423 24.48905,0.1921 -4.00301,4.99516 -16.7185,0.28816 -6.75017,31.98812 10.91424,11.3521 -1.33839,4.78604 -46.4664,0.57636 7.5351,-6.33998 33.27999,0.19211 -9.02643,-8.45331 8.08452,-39.57686 z"
       style="fill:#7a0606;fill-opacity:1"
       id="path98" />
    <path
       inkscape:connector-curvature="0"
       d="m 519.5062,508.80633 0.15699,0.7685 6.67171,38.03991 -8.78535,9.22178 -7.08661,0.38425 10.6691,-11.42432 -5.62885,-31.99496 4.00301,-4.99516 z"
       style="fill:#ea9d9d;fill-opacity:1"
       id="path100" />
    <path
       inkscape:connector-curvature="0"
       d="m 163.47315,516.01087 10.7532,-4.70696 0,10.47058 -36.65508,53.12139 25.90188,-58.88501 z"
       style="fill:#7a0606;fill-opacity:1"
       id="path102" />
    <path
       inkscape:connector-curvature="0"
       d="m 168.8105,518.89268 5.57283,3.26606 -35.81414,51.84526 30.24131,-55.11132 z"
       style="fill:#ea9d9d;fill-opacity:1"
       id="path104" />
    <path
       inkscape:connector-curvature="0"
       d="m 122.65806,378.54846 c 46.15244,-0.48029 92.46184,0.48031 138.53579,-0.57634 l -0.62792,0.67241 c -1.80528,2.11333 -3.4536,4.51483 -5.41584,6.53211 -42.85583,-0.28818 -85.71166,-0.0961 -128.5675,-0.0961 -4.47395,15.36967 -9.34037,30.54721 -13.81433,46.01294 -2.51172,2.97787 -5.33737,5.37937 -8.08453,7.87694 5.80832,-20.26874 12.32302,-40.15324 17.97433,-60.42198 z"
       style="fill:#ea9d9d;fill-opacity:1"
       id="path106" />
    <path
       inkscape:connector-curvature="0"
       d="m 255.15009,385.17664 5.41584,-6.53211 1.96226,6.24393 -13.1527,23.9601 13.58433,15.09189 -4.98407,1.38942 -11.06719,-11.52725 -89.63619,164.64745 -8.63396,4.99521 106.51168,-198.26864 z"
       style="fill:#7a0606;fill-opacity:1"
       id="path108" />
    <path
       inkscape:connector-curvature="0"
       d="m 148.95238,396.31964 71.5049,0.86453 -8.63399,4.70698 -61.45806,-0.0961 -42.14944,41.40202 -3.53206,-4.22666 44.26865,-42.65081 z"
       style="fill:#7a0606;fill-opacity:1"
       id="path110" />
    <path
       inkscape:connector-curvature="0"
       d="m 221.16368,396.896 -107.61053,199.22925 -5.88679,0 104.15693,-194.2341 9.34039,-4.99515 z"
       style="fill:#ea9d9d;fill-opacity:1"
       id="path112" />
    <path
       inkscape:connector-curvature="0"
       d="m 248.55688,410.34446 c 0.70641,-1.24879 1.49131,-2.49757 2.19774,-3.74637 25.50941,1.05668 51.09732,0 76.60677,0.48031 -1.49134,1.63303 -2.98267,3.26606 -4.47399,4.80302 -23.46865,0.0961 -46.93732,-0.0961 -70.40599,0.0961 -1.33434,-0.48029 -2.66868,-1.05667 -3.92453,-1.63302 z"
       style="fill:#ea9d9d;fill-opacity:1"
       id="path114" />
    <g
       transform="matrix(0.74319963,0,0,0.75766317,119.93026,79.398344)"
       style="font-size:28.49503136px;font-style:normal;font-variant:normal;font-weight:normal;font-stretch:normal;line-height:125%;letter-spacing:0px;word-spacing:0px;fill:#000000;fill-opacity:1;stroke:none;font-family:Charlemagne;-inkscape-font-specification:Charlemagne"
       id="text3028">
      <path
         d="m 286.84914,403.10458 c 0.24581,-2.75487 0.36871,-4.83495 0.36871,-6.24025 l 0,-0.76524 c 0.0371,0.0186 0.22726,0.0464 0.57046,0.0835 0,0.81628 0.058,1.45399 0.17392,1.91312 1.82268,0.11132 4.82337,0.20408 9.00209,0.27827 3.20939,-0.0556 6.53242,-0.14839 9.96909,-0.27827 0.0417,-0.0788 0.11824,-0.36406 0.22957,-0.85569 0.11593,-0.49623 0.19245,-0.8116 0.22958,-0.94612 0.19013,-0.0742 0.371,-0.11129 0.54263,-0.11131 -0.17163,0.77918 -0.3525,2.02444 -0.54263,3.7358 -0.19018,1.7253 -0.32235,2.85462 -0.39654,3.38796 -0.11597,-0.0185 -0.28757,-0.0649 -0.5148,-0.13914 0.0185,-0.34319 0.0371,-0.66784 0.0557,-0.97395 -2e-5,-0.2829 -2e-5,-0.69103 0,-1.2244 l 0,-0.93917 c -0.43598,-0.24578 -1.18499,-0.44521 -2.24704,-0.59828 -1.08528,-0.15303 -2.15894,-0.25738 -3.221,-0.31306 -1.08527,-0.0556 -1.96878,-0.0835 -2.65054,-0.0835 -0.0186,0.58903 -0.0371,1.60472 -0.0557,3.04708 -0.0418,1.46094 -0.0812,3.30449 -0.11827,5.53065 0.0788,5.20369 0.13681,8.47106 0.17392,9.80213 1.38671,0.16696 2.6111,0.28986 3.67319,0.36871 l 0.11826,0.45219 c -0.19016,-0.0186 -0.57974,-0.0371 -1.16874,-0.0557 -0.60757,0 -1.28238,-0.009 -2.02442,-0.0278 -0.74207,0 -1.34963,-0.009 -1.82268,-0.0278 -0.45916,0.0186 -1.04817,0.0278 -1.76703,0.0278 -0.74207,0.0186 -1.41687,0.0278 -2.02443,0.0278 -0.60756,0.0186 -1.0157,0.0371 -1.22439,0.0557 l 0.16696,-0.45219 c 2.12877,-0.19016 3.33461,-0.31306 3.61753,-0.36871 0.0788,-2.62503 0.11826,-6.00835 0.11827,-10.14997 -10e-6,-3.47374 -0.0394,-6.21704 -0.11827,-8.22989 -4.32713,0.0557 -7.01477,0.38728 -8.06292,0.99482 -0.0928,0.24583 -0.28291,1.21514 -0.57046,2.90795 -0.28291,0.0742 -0.44292,0.12987 -0.48002,0.16696 z"
         id="path3083"
         inkscape:connector-curvature="0" />
      <path
         d="m 309.45177,398.52005 -0.22958,-0.42436 c 0.77916,0.0186 1.49107,0.0278 2.13574,0.0278 0.63075,0.0186 1.30555,0.0464 2.02443,0.0835 2.47197,-0.0742 3.95377,-0.11128 4.44539,-0.1113 l -0.0835,0.42436 c -0.77917,0.0557 -1.72993,0.18785 -2.85229,0.39654 -0.11131,1.90154 -0.16697,4.64715 -0.16696,8.23684 1.36816,10e-6 2.66908,0.0186 3.90276,0.0557 0.589,-0.0185 1.48179,-0.0371 2.67837,-0.0557 1.178,10e-6 2.40239,-0.009 3.67318,-0.0278 1.25685,10e-6 2.25399,-0.009 2.99143,-0.0278 l 0,-3.56188 c -2e-5,-1.178 -0.0557,-2.71777 -0.16697,-4.61931 -1.17803,-0.22724 -2.12879,-0.35942 -2.85228,-0.39654 l -0.0835,-0.42436 c 0.77914,0.0186 1.50033,0.0278 2.16356,0.0278 0.64928,0.0186 1.42844,0.0464 2.33748,0.0835 0.98784,-0.0371 1.74845,-0.0649 2.28183,-0.0835 0.53333,2e-5 1.12234,-0.009 1.76703,-0.0278 l -0.17392,0.39653 c -0.51019,0.0742 -0.93688,0.12988 -1.28005,0.16697 -0.34323,0.0603 -0.89513,0.14611 -1.65572,0.2574 -0.0742,1.80414 -0.14843,4.49178 -0.22262,8.06292 0.0185,0.82091 0.0464,2.00937 0.0835,3.56536 0.0371,1.55601 0.0742,2.80011 0.11131,3.73232 0.0185,0.95077 0.0487,1.9966 0.0904,3.13752 0.96465,0.14841 1.55134,0.22261 1.76007,0.22261 0.19013,0.0186 0.56116,0.0673 1.11309,0.1461 l 0.17392,0.45219 c -0.58904,0 -1.85285,-0.0371 -3.79146,-0.11131 -2.4117,0.0742 -4.0164,0.13218 -4.8141,0.17392 l 0.13914,-0.5148 c 0.45913,-0.0557 1.40989,-0.17856 2.85228,-0.36871 0.11129,-1.15947 0.16695,-4.31321 0.16697,-9.46125 l -0.99483,0 c -0.93222,1e-5 -1.93864,0.0186 -3.01924,0.0557 -1.10383,0.0557 -2.54852,0.12291 -4.33409,0.20175 -1.80414,0.0742 -3.43666,0.12987 -4.89758,0.16696 0.0185,0.85337 0.0371,2.30734 0.0557,4.36191 0.0186,2.04994 0.0765,3.60826 0.17392,4.67497 1.47947,0.22725 2.40936,0.35015 2.78968,0.36871 l 0.0835,0.5148 c -0.77917,-0.0417 -2.10792,-0.0997 -3.98624,-0.17392 -2.39314,0.0742 -3.91436,0.11131 -4.56366,0.11131 l 0.17392,-0.45219 c 1.29396,-0.1345 2.2911,-0.25741 2.99142,-0.36871 0.0788,-4.33176 0.11826,-7.42058 0.11827,-9.26646 -10e-6,-3.00068 -0.058,-6.0779 -0.17392,-9.23166 -0.49626,-0.17158 -1.47485,-0.30376 -2.93577,-0.39654 z"
         id="path3085"
         inkscape:connector-curvature="0" />
      <path
         d="m 339.65817,398.91659 c -0.45915,-0.11129 -0.93453,-0.19709 -1.42614,-0.2574 -0.51481,-0.0556 -1.01801,-0.10202 -1.50963,-0.13914 l -0.17392,-0.42436 c 0.89511,0.0371 2.88011,0.0928 5.95502,0.16696 3.20939,-0.0556 5.4889,-0.15071 6.83853,-0.28523 l 0.22957,-1.3357 0.42437,-0.11827 c -0.16698,1.65574 -0.28988,2.94738 -0.36871,3.87494 -0.0742,0.93222 -0.12988,1.60703 -0.16696,2.02442 l -0.45915,-0.22957 0,-2.05226 c -2e-5,2e-5 -2e-5,2e-5 0,0 -2e-5,-0.41739 -0.88353,-0.74899 -2.65054,-0.99482 -1.78559,-0.22723 -3.16303,-0.34086 -4.13234,-0.34088 -0.15305,2.48591 -0.22958,5.30573 -0.22957,8.45946 2.88938,10e-6 4.99033,-0.15999 6.30285,-0.48002 l 0.28523,-1.22439 0.42437,-0.0626 c -0.0928,0.57046 -0.2064,1.4076 -0.34089,2.5114 -0.15306,1.12237 -0.27596,2.02443 -0.36871,2.70619 l -0.40349,-0.22957 c 0.0185,-0.32001 0.0371,-0.61451 0.0557,-0.88352 -10e-6,-0.26434 -10e-6,-0.59595 0,-0.99482 -0.79772,-0.47305 -2.62967,-0.70958 -5.49586,-0.70959 l -0.45915,0 c -10e-6,0.39887 -0.0186,0.76758 -0.0557,1.10613 0.0186,0.87656 0.0673,2.21691 0.1461,4.02103 0.0556,1.80413 0.0835,3.28593 0.0835,4.44539 4.1416,0 6.59271,-0.3803 7.35333,-1.14091 -1e-5,-0.0557 0.0649,-0.37799 0.19479,-0.967 0.13448,-0.589 0.22956,-1.09221 0.28523,-1.50962 l 0.63307,-0.22958 c -0.17162,0.68177 -0.37337,1.79254 -0.60524,3.33231 -0.22727,1.53977 -0.35945,2.63198 -0.39654,3.27665 l -0.45219,-0.11131 -0.0626,-1.60006 c -0.26438,-0.19016 -2.58099,-0.32234 -6.94984,-0.39654 -3.19086,0.0742 -5.04368,0.13218 -5.55848,0.17392 l 0.11826,-0.5148 c 1.34498,-0.11595 2.34212,-0.23885 2.99143,-0.36871 0.0742,-3.26969 0.1113,-6.55794 0.11131,-9.86474 -10e-6,-3.24649 -0.0557,-6.12428 -0.16697,-8.63338 z"
         id="path3087"
         inkscape:connector-curvature="0" />
      <path
         d="m 375.65959,416.07204 c 0.47768,-1.38671 0.81161,-2.49748 1.00178,-3.3323 l 0.57045,-0.11827 c -0.30611,0.96932 -0.62148,2.46271 -0.94612,4.48018 -0.32003,2.03138 -0.51018,3.59666 -0.57046,4.69584 l -0.53567,-0.16697 c 0.0927,-0.83482 0.13912,-1.94558 0.13914,-3.3323 -1.08064,0 -1.75545,-0.0116 -2.02443,-0.0348 -0.26437,0 -1.10846,-0.0186 -2.53227,-0.0557 -1.44703,-0.0186 -2.81519,-0.0464 -4.10451,-0.0835 -0.62612,0.0186 -1.20585,0.0278 -1.7392,0.0278 -0.53336,0.0186 -1.08526,0.0464 -1.65572,0.0835 l 0.11827,-0.45219 c 1.84122,-0.20871 2.83836,-0.33161 2.99142,-0.36871 0.11594,-3.8216 0.17391,-7.03332 0.17392,-9.63517 -1e-5,-2.12876 -0.0116,-3.75201 -0.0348,-4.86975 -0.0186,-1.12235 -0.0649,-2.45341 -0.13913,-3.9932 -0.64467,-0.12984 -1.66036,-0.26202 -3.04708,-0.39654 l -0.0626,-0.42436 c 0.63075,0.0186 1.31483,0.0464 2.05225,0.0835 0.72351,0.0371 1.28469,0.065 1.68355,0.0835 0.95075,-0.0371 1.72992,-0.0649 2.33748,-0.0835 0.589,-0.0185 1.07366,-0.0371 1.45397,-0.0557 0.3803,-0.0185 0.87423,-0.0278 1.4818,-0.0278 l -0.17392,0.42436 c -0.49162,0.0557 -1.03193,0.12292 -1.62093,0.20175 -0.58902,0.0742 -1.14093,0.13915 -1.65572,0.19479 -0.0186,0.22727 -0.0371,0.99716 -0.0557,2.30965 -0.0371,1.31253 -0.0742,3.10739 -0.11131,5.38456 0.0371,4.12307 0.0742,6.96376 0.11131,8.52208 0.0185,1.55832 0.0371,2.33748 0.0557,2.33748 3.74274,-0.0788 6.02225,-0.54495 6.83853,-1.39832 z"
         id="path3089"
         inkscape:connector-curvature="0" />
      <path
         d="m 382.40072,398.91659 c -0.45915,-0.11129 -0.93453,-0.19709 -1.42614,-0.2574 -0.51481,-0.0556 -1.01801,-0.10202 -1.50963,-0.13914 l -0.17392,-0.42436 c 0.89511,0.0371 2.88011,0.0928 5.95502,0.16696 3.20939,-0.0556 5.4889,-0.15071 6.83853,-0.28523 l 0.22957,-1.3357 0.42437,-0.11827 c -0.16698,1.65574 -0.28988,2.94738 -0.36871,3.87494 -0.0742,0.93222 -0.12988,1.60703 -0.16696,2.02442 l -0.45915,-0.22957 0,-2.05226 c -2e-5,2e-5 -2e-5,2e-5 0,0 -2e-5,-0.41739 -0.88353,-0.74899 -2.65054,-0.99482 -1.78559,-0.22723 -3.16303,-0.34086 -4.13234,-0.34088 -0.15305,2.48591 -0.22958,5.30573 -0.22957,8.45946 2.88938,10e-6 4.99033,-0.15999 6.30285,-0.48002 l 0.28523,-1.22439 0.42437,-0.0626 c -0.0928,0.57046 -0.2064,1.4076 -0.34089,2.5114 -0.15306,1.12237 -0.27596,2.02443 -0.36871,2.70619 l -0.40349,-0.22957 c 0.0185,-0.32001 0.0371,-0.61451 0.0557,-0.88352 -10e-6,-0.26434 -10e-6,-0.59595 0,-0.99482 -0.79772,-0.47305 -2.62967,-0.70958 -5.49586,-0.70959 l -0.45915,0 c -10e-6,0.39887 -0.0186,0.76758 -0.0557,1.10613 0.0186,0.87656 0.0673,2.21691 0.1461,4.02103 0.0556,1.80413 0.0835,3.28593 0.0835,4.44539 4.1416,0 6.59271,-0.3803 7.35333,-1.14091 -1e-5,-0.0557 0.0649,-0.37799 0.19479,-0.967 0.13448,-0.589 0.22956,-1.09221 0.28523,-1.50962 l 0.63307,-0.22958 c -0.17162,0.68177 -0.37337,1.79254 -0.60524,3.33231 -0.22727,1.53977 -0.35945,2.63198 -0.39654,3.27665 l -0.45219,-0.11131 -0.0626,-1.60006 c -0.26438,-0.19016 -2.58099,-0.32234 -6.94984,-0.39654 -3.19086,0.0742 -5.04368,0.13218 -5.55848,0.17392 l 0.11826,-0.5148 c 1.34498,-0.11595 2.34212,-0.23885 2.99143,-0.36871 0.0742,-3.26969 0.1113,-6.55794 0.11131,-9.86474 -10e-6,-3.24649 -0.0557,-6.12428 -0.16697,-8.63338 z"
         id="path3091"
         inkscape:connector-curvature="0" />
      <path
         d="m 412.39842,409.317 c 0.53334,0.0186 1.04582,0.0278 1.53745,0.0278 0.47305,0.0232 1.22438,0.0533 2.25401,0.0904 1.06204,-0.0371 1.87831,-0.0672 2.44879,-0.0904 0.57043,10e-6 1.17799,-0.009 1.82268,-0.0278 l -0.17392,0.5148 c -0.62614,0.0557 -1.4424,0.16929 -2.44879,0.34088 -0.0186,0.13451 -0.065,1.34035 -0.13914,3.61753 0.0556,1.33107 0.0835,2.64359 0.0835,3.93755 -2.6807,0.60756 -5.17819,0.91134 -7.49247,0.91134 -1.25687,0 -2.50214,-0.0951 -3.7358,-0.28523 -2.81055,-0.5148 -4.97643,-1.64644 -6.49764,-3.39491 -1.53514,-1.74384 -2.36995,-3.68942 -2.50445,-5.83675 -0.0186,-0.22725 -0.0278,-0.45682 -0.0278,-0.68873 0,-1.27076 0.26436,-2.5624 0.79308,-3.87493 0.63075,-1.55831 1.66731,-2.93575 3.10969,-4.13234 1.44236,-1.19655 3.24649,-1.99426 5.41238,-2.39314 1.25221,-0.14839 2.30733,-0.22259 3.16534,-0.22261 2.18442,2e-5 4.34103,0.22727 6.46982,0.68176 0.11129,-0.55188 0.20637,-1.00871 0.28523,-1.37049 0.0556,-0.33854 0.12057,-0.7745 0.19479,-1.30787 l 0.51481,-0.11827 c -0.24583,2.41635 -0.39888,4.79093 -0.45915,7.12376 0.0417,0.23191 0.0626,0.54728 0.0626,0.94612 l -0.48698,-0.17392 c -0.0186,-0.22724 -0.0371,-0.46377 -0.0557,-0.70959 -0.0371,-0.23188 -0.065,-0.46145 -0.0835,-0.68872 -0.0418,-0.22724 -0.0719,-0.46377 -0.0904,-0.70959 -0.0371,-0.24579 -0.0742,-0.46377 -0.11131,-0.65394 -0.74208,-0.58899 -1.81574,-1.10148 -3.221,-1.53746 -1.42384,-0.44057 -2.87781,-0.66087 -4.36191,-0.66089 -1.57688,2e-5 -3.03781,0.3525 -4.38278,1.05743 -1.36817,0.72353 -2.46271,1.72067 -3.2836,2.99142 -0.83482,1.27079 -1.26151,2.70389 -1.28005,4.2993 -1e-5,0.0417 -1e-5,0.0812 0,0.11827 -1e-5,2.01284 0.53334,3.83552 1.60006,5.46804 1.06206,1.67427 2.40008,2.96592 4.01407,3.87493 1.53976,0.87656 3.41113,1.34267 5.61413,1.39832 1.80411,-0.0557 3.30446,-0.33161 4.50105,-0.82786 0.0371,-0.51016 0.0556,-1.77398 0.0557,-3.79145 -2e-5,-1.63252 -0.0186,-2.64821 -0.0557,-3.04708 -0.43598,-0.0556 -0.90209,-0.12057 -1.39832,-0.19479 -0.51018,-0.0603 -1.00411,-0.10898 -1.4818,-0.14609 z"
         id="path3093"
         inkscape:connector-curvature="0" />
      <path
         d="m 426.14505,398.91659 c -0.45915,-0.11129 -0.93453,-0.19709 -1.42614,-0.2574 -0.51481,-0.0556 -1.01801,-0.10202 -1.50962,-0.13914 l -0.17392,-0.42436 c 0.8951,0.0371 2.8801,0.0928 5.95501,0.16696 3.20939,-0.0556 5.4889,-0.15071 6.83853,-0.28523 l 0.22958,-1.3357 0.42436,-0.11827 c -0.16698,1.65574 -0.28988,2.94738 -0.36871,3.87494 -0.0742,0.93222 -0.12987,1.60703 -0.16696,2.02442 l -0.45915,-0.22957 0,-2.05226 c -2e-5,2e-5 -2e-5,2e-5 0,0 -2e-5,-0.41739 -0.88353,-0.74899 -2.65054,-0.99482 -1.78559,-0.22723 -3.16303,-0.34086 -4.13234,-0.34088 -0.15305,2.48591 -0.22958,5.30573 -0.22957,8.45946 2.88938,10e-6 4.99033,-0.15999 6.30286,-0.48002 l 0.28522,-1.22439 0.42437,-0.0626 c -0.0928,0.57046 -0.2064,1.4076 -0.34088,2.5114 -0.15307,1.12237 -0.27597,2.02443 -0.36871,2.70619 l -0.4035,-0.22957 c 0.0185,-0.32001 0.0371,-0.61451 0.0557,-0.88352 -2e-5,-0.26434 -2e-5,-0.59595 0,-0.99482 -0.79773,-0.47305 -2.62968,-0.70958 -5.49587,-0.70959 l -0.45915,0 c -10e-6,0.39887 -0.0186,0.76758 -0.0556,1.10613 0.0185,0.87656 0.0672,2.21691 0.14609,4.02103 0.0557,1.80413 0.0835,3.28593 0.0835,4.44539 4.1416,0 6.59271,-0.3803 7.35333,-1.14091 -1e-5,-0.0557 0.0649,-0.37799 0.19479,-0.967 0.13448,-0.589 0.22956,-1.09221 0.28523,-1.50962 l 0.63307,-0.22958 c -0.17162,0.68177 -0.37336,1.79254 -0.60524,3.33231 -0.22727,1.53977 -0.35945,2.63198 -0.39654,3.27665 l -0.45219,-0.11131 -0.0626,-1.60006 c -0.26437,-0.19016 -2.58098,-0.32234 -6.94984,-0.39654 -3.19085,0.0742 -5.04368,0.13218 -5.55848,0.17392 l 0.11827,-0.5148 c 1.34497,-0.11595 2.34211,-0.23885 2.99142,-0.36871 0.0742,-3.26969 0.1113,-6.55794 0.11131,-9.86474 -10e-6,-3.24649 -0.0557,-6.12428 -0.16697,-8.63338 z"
         id="path3095"
         inkscape:connector-curvature="0" />
      <path
         d="m 441.2413,418.23561 0.11131,-0.45219 c 0.22725,-0.0371 0.55886,-0.0858 0.99482,-0.1461 0.44059,-0.0557 0.93452,-0.12986 1.4818,-0.22261 0.25044,-1.14092 0.48001,-7.2884 0.68872,-18.44247 -0.11595,-0.0371 -0.64931,-0.10201 -1.60006,-0.19479 -0.94613,-0.0974 -1.46789,-0.14607 -1.56528,-0.14609 l -0.11131,-0.42437 c 3.01924,-0.0742 4.92772,-0.15071 5.72544,-0.22957 1.12236,1.52124 2.25167,3.01231 3.38796,4.47322 1.1409,1.48413 2.56704,3.27898 4.27843,5.38456 1.68816,2.12879 3.083,3.87726 4.18451,5.24542 1.10147,1.36818 1.71019,2.15661 1.82616,2.36531 l 0.0557,0 c -2e-5,-9.17368 -0.12292,-14.68346 -0.36871,-16.52934 -1.00643,-0.20869 -2.07082,-0.34087 -3.19317,-0.39654 l -0.1113,-0.42436 c 0.71885,0.0186 1.38438,0.0278 1.9966,0.0278 0.58898,0.0186 1.3009,0.0464 2.13573,0.0835 0.909,-0.0371 1.59309,-0.0649 2.05226,-0.0835 0.45448,2e-5 0.95769,-0.009 1.50962,-0.0278 l -0.11826,0.42436 c -1.00644,0.15307 -1.78329,0.28525 -2.33053,0.39654 -0.15307,0.83947 -0.26902,2.37924 -0.34784,4.61931 -0.0928,2.2401 -0.15771,4.56599 -0.19479,6.97766 -0.0418,2.43489 -0.0905,5.61878 -0.14609,9.55168 -0.83484,-1.08526 -2.15431,-2.75721 -3.95842,-5.01585 -1.80414,-2.26327 -3.11434,-3.89811 -3.93059,-4.90454 -0.82091,-0.98785 -2.0569,-2.49747 -3.70797,-4.52887 -1.65109,-2.03137 -3.20013,-3.91202 -4.64714,-5.64196 0,2.84766 0.0394,5.96199 0.11827,9.34298 0.0556,3.381 0.15072,6.08024 0.28523,8.09771 0.2829,0.0927 1.41222,0.21566 3.38795,0.36871 l 0.0557,0.45219 c -0.68178,-0.0371 -1.33571,-0.0649 -1.96182,-0.0835 -0.62612,0 -1.3102,-0.009 -2.05225,-0.0278 -0.70496,0.0186 -1.35194,0.0278 -1.94095,0.0278 -0.60756,0.0186 -1.27077,0.0464 -1.98964,0.0835 z"
         id="path3097"
         inkscape:connector-curvature="0" />
      <path
         d="m 470.9468,398.91659 c -1.04816,-0.20869 -2.0453,-0.34087 -2.99142,-0.39654 l -0.0626,-0.42436 c 1.17801,2e-5 2.54618,0.0371 4.10451,0.1113 4.03029,-0.0742 6.4814,-0.11128 7.35333,-0.1113 4.04884,0.12988 7.01243,0.88817 8.89078,2.27487 0.74204,0.53337 1.32177,1.1131 1.7392,1.7392 0.39883,0.62612 0.70261,1.2731 0.91134,1.94094 0.20868,0.68178 0.31303,1.27079 0.31306,1.76703 -3e-5,0.0928 -3e-5,0.17625 0,0.25044 -3e-5,3.00535 -0.96934,5.54226 -2.90794,7.61074 -1.28935,1.38672 -2.78042,2.41169 -4.47322,3.0749 -1.6882,0.66785 -3.38797,1.06671 -5.09933,1.19657 -1.71138,0.15305 -3.84016,0.22957 -6.38634,0.22957 -1.04352,0.0371 -2.52532,0.0557 -4.44539,0.0557 l 0.11826,-0.45219 c 1.28933,-0.0557 2.26792,-0.17856 2.93577,-0.36871 0.0557,-0.36176 0.10203,-1.37049 0.13914,-3.02621 0.0185,-1.65107 0.0278,-4.04421 0.0278,-7.17941 0,-2.54618 -0.009,-4.45466 -0.0278,-5.72544 -0.0371,-1.25221 -0.0835,-2.1079 -0.13914,-2.56706 z m 2.5601,0.17392 c -0.0742,1.78559 -0.14842,4.76774 -0.22262,8.94644 0.0742,4.02567 0.14841,6.94056 0.22262,8.74469 1.46556,0.28755 2.74793,0.45915 3.84711,0.5148 1.36816,-0.0371 2.90793,-0.30146 4.61931,-0.79308 2.37457,-0.77915 4.18797,-2.07312 5.44021,-3.88189 1.0064,-1.46092 1.50961,-3.05634 1.50963,-4.78627 -2e-5,-0.35711 -0.0186,-0.72582 -0.0557,-1.10613 -0.38032,-3.19547 -2.07082,-5.41005 -5.0715,-6.64374 -1.78559,-0.77914 -4.2367,-1.16872 -7.35333,-1.16874 -1.06208,2e-5 -2.04067,0.058 -2.93577,0.17392 z"
         id="path3099"
         inkscape:connector-curvature="0" />
      <path
         d="m 513.96067,397.74785 c 0.38029,-0.0185 0.75132,-0.0278 1.11309,-0.0278 1.91542,2e-5 3.59664,0.3038 5.04367,0.91134 1.70672,0.74208 3.07257,1.78791 4.09756,3.13751 0.57043,0.74208 1.00755,1.58733 1.31135,2.53576 0.30376,0.94845 0.45565,1.97458 0.45567,3.07838 -2e-5,2.6946 -0.91136,5.14571 -2.73402,7.35333 -0.57048,0.70032 -1.30094,1.34498 -2.19139,1.93399 -0.91368,0.58901 -1.94096,1.04584 -3.08186,1.37049 -1.15484,0.33856 -2.34214,0.51944 -3.56188,0.54263 -0.20872,0 -0.41742,0 -0.62611,0 -3.05636,0 -5.55385,-0.81859 -7.49247,-2.45575 -2.20299,-1.89688 -3.3323,-4.32712 -3.38796,-7.29072 0.0557,-2.11022 0.56814,-3.9816 1.53745,-5.61414 0.57046,-0.98785 1.31947,-1.88063 2.24705,-2.67836 0.91365,-0.7977 2.00587,-1.45395 3.27665,-1.96878 1.25685,-0.49159 2.58792,-0.76754 3.9932,-0.82785 z m -2.39314,1.22439 c -2.22154,0.45917 -3.88421,1.4679 -4.98802,3.02621 -1.12237,1.55833 -1.7021,3.29521 -1.7392,5.21064 0.0186,0.19016 0.0765,0.71424 0.17392,1.57223 0.30146,1.65109 0.91829,3.09346 1.85051,4.32713 0.91365,1.25223 1.97804,2.23081 3.19317,2.93577 1.21511,0.7235 2.39312,1.18033 3.53405,1.37049 0.6261,0.0742 1.12003,0.12058 1.4818,0.13913 1.59541,0 3.1143,-0.3803 4.5567,-1.14091 1.44235,-0.76061 2.55312,-1.92935 3.3323,-3.50623 0.57044,-1.15482 0.85567,-2.50212 0.85569,-4.0419 -2e-5,-0.55189 -0.0371,-1.12235 -0.11131,-1.71137 -0.0789,-0.9322 -0.39308,-1.92006 -0.94265,-2.96359 -0.5496,-1.04351 -1.2534,-1.96412 -2.11138,-2.76185 -0.85339,-0.79769 -1.86908,-1.44468 -3.04708,-1.94095 -1.19658,-0.49159 -2.46968,-0.7374 -3.81928,-0.73742 -0.81628,2e-5 -1.55601,0.0742 -2.21922,0.22262 z"
         id="path3101"
         inkscape:connector-curvature="0" />
      <path
         d="m 532.44487,398.86093 c -0.68641,-0.13448 -1.7021,-0.25738 -3.04708,-0.36871 l -0.11826,-0.39653 c 1.0667,0.0371 3.10968,0.0928 6.12893,0.16696 3.38099,-0.0556 5.73703,-0.15071 7.06811,-0.28523 l 0.31305,-1.93399 0.51481,-0.17392 c -0.0974,0.43598 -0.20409,1.54675 -0.32002,3.33231 -0.12987,1.78559 -0.1948,2.95433 -0.19479,3.50622 l -0.48697,-0.17392 c -2e-5,-0.4916 -0.0371,-1.24989 -0.11131,-2.27487 -2e-5,-0.0185 -2e-5,-0.0371 0,-0.0557 -2e-5,-0.28752 -0.90208,-0.5913 -2.70619,-0.91134 -1.95719,-0.32463 -3.42971,-0.48695 -4.41757,-0.48697 l -0.0557,0 c -0.13451,1.52124 -0.22958,3.32536 -0.28523,5.41239 0.0371,0.62612 0.0556,1.71834 0.0556,3.27665 0.2458,10e-6 0.50088,10e-6 0.76525,0 0.7977,0.0186 1.70209,-0.0186 2.71315,-0.11131 1.34497,-0.11594 2.22616,-0.25044 2.64358,-0.4035 l 0.45915,-1.64876 0.42436,0 c -0.12987,0.62613 -0.23422,1.57457 -0.31305,2.84533 -0.0742,1.27542 -0.12988,2.36996 -0.16696,3.28361 l -0.45915,-0.17392 0,-0.39654 c -2e-5,-0.26899 -0.0186,-0.63074 -0.0557,-1.08526 -0.0371,-0.4545 -0.0557,-0.75828 -0.0556,-0.91134 -0.11596,-0.19014 -0.72352,-0.37102 -1.82268,-0.54263 -1.12237,-0.17159 -2.24474,-0.25739 -3.36709,-0.2574 l -0.76525,0 c 0,4.46627 0.0765,7.57363 0.22958,9.32211 0.12985,0.0186 0.40348,0.0557 0.8209,0.1113 0.4174,0.0557 0.7977,0.10204 1.14091,0.13914 0.34319,0.0603 0.6864,0.0997 1.02961,0.11827 l 0.11131,0.45219 c -0.13451,0 -1.39833,-0.0371 -3.79146,-0.11131 -2.96359,0.0742 -4.62627,0.13218 -4.98802,0.17392 l 0.11827,-0.5148 c 0.36175,-0.0371 0.87423,-0.0858 1.53745,-0.1461 0.64466,-0.0557 1.14787,-0.12986 1.50962,-0.22261 0.0788,-2.75489 0.11826,-5.82284 0.11827,-9.20384 -10e-6,-2.45342 -0.058,-5.57006 -0.17392,-9.34994 z"
         id="path3103"
         inkscape:connector-curvature="0" />
    </g>
    <g
       transform="matrix(0.91608334,0,0,0.93162055,-39.487259,5.788428)"
       style="font-size:11.85996342px;font-style:normal;font-variant:normal;font-weight:normal;font-stretch:normal;line-height:125%;letter-spacing:0px;word-spacing:0px;fill:#000000;fill-opacity:1;stroke:none;font-family:Charlemagne;-inkscape-font-specification:Charlemagne"
       id="text3073">
      <path
         d="m 671.37528,597.47426 c 0.1023,-1.14661 0.15346,-2.01236 0.15346,-2.59726 l 0,-0.3185 c 0.0154,0.008 0.0946,0.0193 0.23743,0.0347 0,0.33975 0.0241,0.60517 0.0724,0.79627 0.75861,0.0463 2.00754,0.0849 3.74677,0.11582 1.33579,-0.0232 2.71887,-0.0618 4.14925,-0.11582 0.0174,-0.0328 0.0492,-0.15153 0.0956,-0.35615 0.0482,-0.20654 0.0801,-0.3378 0.0956,-0.39379 0.0791,-0.0309 0.15442,-0.0463 0.22585,-0.0463 -0.0714,0.32431 -0.14671,0.8426 -0.22585,1.55489 -0.0792,0.71809 -0.13416,1.18812 -0.16504,1.4101 -0.0483,-0.008 -0.11969,-0.027 -0.21427,-0.0579 0.008,-0.14283 0.0154,-0.27796 0.0232,-0.40537 -10e-6,-0.11774 -10e-6,-0.28761 0,-0.5096 l 0,-0.3909 c -0.18146,-0.1023 -0.49321,-0.1853 -0.93525,-0.24901 -0.4517,-0.0637 -0.89857,-0.10712 -1.34061,-0.1303 -0.45171,-0.0231 -0.81944,-0.0347 -1.10319,-0.0347 -0.008,0.24516 -0.0154,0.6679 -0.0232,1.26823 -0.0174,0.60806 -0.0338,1.37536 -0.0492,2.30192 0.0328,2.16583 0.0569,3.52575 0.0724,4.07976 0.57716,0.0695 1.08677,0.12064 1.52882,0.15346 l 0.0492,0.1882 c -0.0792,-0.008 -0.2413,-0.0154 -0.48645,-0.0232 -0.25288,0 -0.53374,-0.004 -0.84259,-0.0116 -0.30885,0 -0.56173,-0.004 -0.75862,-0.0116 -0.1911,0.008 -0.43626,0.0116 -0.73545,0.0116 -0.30886,0.008 -0.58972,0.0116 -0.84259,0.0116 -0.25288,0.008 -0.42275,0.0154 -0.50961,0.0232 l 0.0695,-0.1882 c 0.88602,-0.0791 1.38791,-0.1303 1.50566,-0.15346 0.0328,-1.09257 0.0492,-2.50075 0.0492,-4.22454 0,-1.44581 -0.0164,-2.5876 -0.0492,-3.42537 -1.801,0.0232 -2.91963,0.16119 -3.35588,0.41405 -0.0386,0.10232 -0.11775,0.50576 -0.23743,1.21032 -0.11776,0.0309 -0.18435,0.0541 -0.19979,0.0695 z"
         id="path3078"
         inkscape:connector-curvature="0" />
      <path
         d="m 681.73248,595.56613 -0.0492,-0.17662 c 0.22971,0.008 0.44398,0.0116 0.6428,0.0116 0.19689,0.008 0.46907,0.0193 0.81653,0.0347 0.4266,-0.0154 0.74704,-0.027 0.96131,-0.0347 0.20461,10e-6 0.42177,-0.004 0.65149,-0.0116 l -0.0232,0.17662 c -0.0869,0.008 -0.36387,0.0627 -0.83101,0.16504 0.31657,0.94974 0.71229,2.06498 1.18716,3.34575 0.47486,1.28078 0.83872,2.25319 1.0916,2.91722 0.0154,-0.0309 0.0907,-0.21716 0.22585,-0.55883 0.13319,-0.33202 0.3822,-0.93235 0.74704,-1.801 0.35517,-0.87058 0.68333,-1.68904 0.98447,-2.45539 0.29147,-0.76633 0.47292,-1.24891 0.54435,-1.44775 -0.33202,-0.0791 -0.62061,-0.13415 -0.86575,-0.16504 l -0.0463,-0.17662 c 0.21233,0.008 0.41308,0.0116 0.60226,0.0116 0.18338,0.008 0.41695,0.0193 0.70072,0.0347 0.94971,-0.0309 1.468,-0.0463 1.55488,-0.0463 l -0.0232,0.17662 c -0.056,10e-6 -0.19497,0.0159 -0.41695,0.0478 -0.222,0.0319 -0.39959,0.0709 -0.53277,0.11726 0.26831,1.38406 0.8059,3.95043 1.61279,7.69914 0.36289,0.1023 0.67078,0.15346 0.92367,0.15346 l 0.0724,0.21426 c -0.18146,-0.0174 -0.74318,-0.0415 -1.68518,-0.0724 -0.80495,0.0309 -1.36185,0.0463 -1.6707,0.0463 l 0.0232,-0.1882 c 0.72,-0.0637 1.15046,-0.11486 1.29139,-0.15346 -0.0541,-0.388 -0.13707,-0.91015 -0.24901,-1.56647 -0.11004,-0.64859 -0.19305,-1.11476 -0.24902,-1.39852 -0.0618,-0.28569 -0.19208,-0.91498 -0.39089,-1.88787 -0.1969,-0.96323 -0.3465,-1.69386 -0.4488,-2.19189 l -3.03738,7.29376 -2.7044,-7.43854 -0.0463,0.0261 c -0.2857,1.25665 -0.55498,2.68703 -0.80785,4.29113 -0.21234,1.35317 -0.31851,2.24691 -0.3185,2.68123 -10e-6,0.0792 0.004,0.14285 0.0116,0.19111 0.0946,0.008 0.20461,0.0193 0.33009,0.0347 0.12739,0.0154 0.23839,0.027 0.33298,0.0348 0.0869,0.0154 0.19399,0.0318 0.3214,0.0492 0.12547,0.0154 0.22005,0.027 0.28376,0.0347 l 0.0463,0.1882 c -0.20461,0 -0.80495,-0.0154 -1.801,-0.0463 -0.22198,0.008 -0.42757,0.0116 -0.61674,0.0116 -0.19882,0.008 -0.41598,0.0193 -0.65148,0.0347 l 0.0232,-0.1882 c 0.0714,-0.0232 0.16987,-0.0434 0.29534,-0.0608 0.11968,-0.0154 0.32912,-0.0463 0.62832,-0.0927 0.0946,-0.29341 0.33202,-1.37681 0.7123,-3.2502 0.38027,-1.87338 0.68044,-3.35636 0.9005,-4.44894 -0.25288,-0.0714 -0.6042,-0.12642 -1.05396,-0.16504 z"
         id="path3080"
         inkscape:connector-curvature="0" />
    </g>
    <path
       style="font-size:40px;font-style:normal;font-variant:normal;font-weight:normal;font-stretch:normal;line-height:125%;letter-spacing:0px;word-spacing:0px;fill:#000000;fill-opacity:1;stroke:none;font-family:Charlemagne;-inkscape-font-specification:Charlemagne"
       inkscape:connector-curvature="0"
       id="path3081"
       d="m 315.15254,571.47557 c 0.35684,-0.0172 0.70498,-0.0258 1.04445,-0.0259 1.79727,2e-5 3.3748,0.28214 4.73257,0.84634 1.60145,0.68915 2.88307,1.66039 3.84484,2.91373 0.53524,0.68915 0.9454,1.47411 1.23046,2.35488 0.28501,0.88082 0.42754,1.83375 0.42756,2.85882 -2e-5,2.50241 -0.85515,4.77869 -2.56539,6.82885 -0.53529,0.65038 -1.2207,1.24905 -2.05623,1.79605 -0.85732,0.54698 -1.82124,0.97123 -2.89177,1.27275 -1.08361,0.31439 -2.19767,0.48237 -3.34218,0.50392 -0.19585,0 -0.39168,0 -0.58749,0 -2.86785,0 -5.21131,-0.7602 -7.03034,-2.28059 -2.06711,-1.7616 -3.12677,-4.0185 -3.17899,-6.77072 0.0522,-1.9597 0.53309,-3.6976 1.44263,-5.21369 0.53524,-0.9174 1.23808,-1.74649 2.10844,-2.48733 0.85729,-0.7408 1.88215,-1.35025 3.07454,-1.82836 1.17934,-0.45653 2.42829,-0.71279 3.7469,-0.7688 z m -2.24551,1.13707 c -2.08453,0.42642 -3.64465,1.36319 -4.68037,2.81035 -1.05315,1.4472 -1.59712,3.06019 -1.63193,4.839 0.0173,0.17659 0.0717,0.66329 0.16318,1.46009 0.28287,1.53332 0.86167,2.87282 1.73638,4.01849 0.8573,1.16291 1.85604,2.0717 2.99622,2.72637 1.14016,0.6719 2.24552,1.09615 3.31608,1.27273 0.58747,0.0689 1.05093,0.11201 1.3904,0.12922 1.497,0 2.92221,-0.35317 4.27564,-1.05954 1.35339,-0.70635 2.39564,-1.79174 3.12677,-3.25614 0.53525,-1.07246 0.80289,-2.32365 0.8029,-3.75361 -1e-5,-0.51253 -0.0348,-1.0423 -0.10446,-1.58931 -0.0741,-0.8657 -0.36884,-1.7831 -0.88451,-2.7522 -0.5157,-0.96908 -1.17609,-1.82404 -1.98116,-2.56486 -0.80074,-0.7408 -1.75378,-1.34162 -2.85913,-1.80251 -1.12277,-0.45653 -2.31734,-0.68481 -3.58371,-0.68482 -0.76592,10e-6 -1.46004,0.069 -2.08232,0.20674 z" />
    <path
       style="font-size:40px;font-style:normal;font-variant:normal;font-weight:normal;font-stretch:normal;line-height:125%;letter-spacing:0px;word-spacing:0px;fill:#000000;fill-opacity:1;stroke:none;font-family:Charlemagne;-inkscape-font-specification:Charlemagne"
       inkscape:connector-curvature="0"
       id="path3084"
       d="m 346.69441,577.53561 -0.45693,-0.15505 c -3e-5,-1.34379 -0.0521,-2.34088 -0.15667,-2.99125 -0.44825,-0.59869 -1.22504,-1.08321 -2.33039,-1.45365 -1.12276,-0.35316 -2.35216,-0.52975 -3.68815,-0.52976 -1.28379,10e-6 -2.29124,0.14 -3.02233,0.41993 -1.61887,0.58148 -2.92007,1.52688 -3.90357,2.8362 -0.99657,1.30507 -1.50355,2.82115 -1.52095,4.54826 0.0173,0.1766 0.0697,0.66115 0.15667,1.45363 0.39165,2.20523 1.27507,3.97974 2.65024,5.32355 1.35342,1.33949 2.99402,2.20305 4.92189,2.59069 0.54832,0.10772 1.42085,0.19597 2.61763,0.26488 2.40652,-0.0516 4.3844,-0.519 5.93367,-1.40195 l -0.10447,0.87219 c -0.85733,0.47809 -1.91916,0.86572 -3.18552,1.1629 -1.26204,0.30149 -2.59804,0.45225 -4.008,0.45225 -3.70776,0 -6.61258,-1.10261 -8.7145,-3.30783 -1.44479,-1.5893 -2.1933,-3.53825 -2.24553,-5.84683 -10e-6,-2.02862 0.60489,-3.94312 1.81471,-5.74348 1.19673,-1.78311 2.90047,-3.04507 5.11118,-3.78591 1.22721,-0.4393 2.79386,-0.65896 4.69996,-0.65898 1.7494,2e-5 3.42486,0.17661 5.02634,0.52977 0.10876,-0.47806 0.20886,-0.90231 0.30027,-1.27274 0.0695,-0.37039 0.13923,-0.75801 0.20887,-1.16289 l 0.53529,-0.16152 c -0.37428,2.27845 -0.58752,4.95097 -0.63973,8.01759 z" />
    <path
       style="font-size:40px;font-style:normal;font-variant:normal;font-weight:normal;font-stretch:normal;line-height:125%;letter-spacing:0px;word-spacing:0px;fill:#000000;fill-opacity:1;stroke:none;font-family:Charlemagne;-inkscape-font-specification:Charlemagne"
       inkscape:connector-curvature="0"
       id="path3086"
       d="m 347.64094,590.56017 0.0521,-0.47807 c 0.19584,0 0.60709,-0.0539 1.23375,-0.16152 0.62232,-0.0861 0.97915,-0.14645 1.07055,-0.18091 0.12184,-0.15935 0.70063,-1.53546 1.73637,-4.12831 1.01397,-2.57562 2.03881,-5.21369 3.07454,-7.91424 1.01395,-2.7005 1.65585,-4.42979 1.92567,-5.18786 -0.64406,-0.12487 -1.37516,-0.2304 -2.1933,-0.31656 l 0,-0.45224 c 0.26545,0.0388 1.49483,0.0926 3.68814,0.16152 2.12367,-0.0689 3.29214,-0.12275 3.50539,-0.16152 l -0.11097,0.45224 c -0.49612,1e-5 -1.17283,0.10562 -2.03011,0.31656 0.7485,2.43351 1.90606,5.73272 3.47273,9.89764 1.55359,4.18217 2.56974,6.62643 3.04844,7.33277 0.0173,0.0172 0.39165,0.0787 1.12278,0.18414 0.73109,0.10551 1.12491,0.15829 1.18151,0.15829 l 0.0521,0.47807 c -0.23066,-0.0388 -1.58625,-0.0926 -4.06677,-0.16152 -2.0323,0.069 -3.3052,0.10331 -3.8187,0.10331 l 0.15667,-0.41993 c 1.07052,-0.0345 1.98006,-0.14861 2.72858,-0.34243 -2e-5,-0.0904 -0.41997,-1.3438 -1.25986,-3.76006 -0.83555,-2.41626 -1.35995,-3.83543 -1.57317,-4.25753 -0.96176,0 -3.12025,0.0861 -6.47548,0.25842 -0.10447,0.15937 -0.34381,0.8485 -0.71804,2.06739 -0.37427,1.2189 -0.72241,2.41842 -1.04443,3.59855 -0.28289,1.07677 -0.42432,1.74652 -0.42432,2.00925 0,0.0388 0,0.0667 0,0.084 0.96175,0.22828 1.63845,0.34243 2.03013,0.34243 l 0.10446,0.41993 c -0.23066,0 -1.2555,-0.0344 -3.07456,-0.10331 -2.11932,0.0689 -3.25078,0.12276 -3.39441,0.16152 z m 6.84756,-9.55522 c 0.67452,10e-6 1.63627,0.009 2.88525,0.0259 1.24895,0.0172 2.2738,0.0344 3.07455,0.0516 0,10e-6 0,10e-6 0,0 0,-0.0689 -0.46349,-1.41702 -1.39042,-4.04433 -0.96176,-2.66606 -1.46002,-4.03355 -1.49484,-4.10249 -0.10876,0.0861 -0.61796,1.33737 -1.52747,3.75362 -0.92695,2.4378 -1.44263,3.87637 -1.54707,4.31567 z" />
    <path
       style="font-size:40px;font-style:normal;font-variant:normal;font-weight:normal;font-stretch:normal;line-height:125%;letter-spacing:0px;word-spacing:0px;fill:#000000;fill-opacity:1;stroke:none;font-family:Charlemagne;-inkscape-font-specification:Charlemagne"
       inkscape:connector-curvature="0"
       id="path3088"
       d="m 374.22175,581.19231 c 2.11932,10e-6 3.61634,-0.20458 4.49105,-0.61376 0.83554,-0.35317 1.48614,-0.86355 1.95179,-1.53116 0.46128,-0.65466 0.75502,-1.40408 0.88124,-2.24829 0.0173,-0.1938 0.026,-0.37901 0.0261,-0.55561 -2e-5,-1.36102 -0.66802,-2.32364 -2.00401,-2.88787 -1.51444,-0.63313 -3.26168,-0.96693 -5.24175,-1.00141 -0.0696,2.04587 -0.10447,4.9919 -0.10447,8.8381 z m 0,0.68482 c -10e-6,1.23614 -0.0195,2.216 -0.0587,2.93958 0.0219,0.40486 0.0413,0.80973 0.0587,1.21459 0.0173,0.40487 0.0348,0.81188 0.0522,1.22105 -1e-5,0.42209 0.009,0.83557 0.0261,1.24044 0.0173,0.40486 0.026,0.82049 0.0261,1.24688 0.14362,0.0345 0.6332,0.0947 1.46877,0.18091 0.82246,0.0904 1.26852,0.14428 1.33816,0.16152 l 0.10447,0.41993 c -0.63972,-0.0344 -1.25333,-0.0602 -1.84081,-0.0775 -0.60491,0 -1.2555,-0.009 -1.95179,-0.0259 -2.78082,0.0689 -4.20821,0.1033 -4.28216,0.1033 l 0.11097,-0.41994 c 1.69285,-0.14212 2.62849,-0.25627 2.8069,-0.34242 0.0697,-0.63743 0.10447,-2.80818 0.10447,-6.51226 -1e-5,-5.84038 -0.0348,-9.41308 -0.10447,-10.71814 -0.37424,-0.0516 -0.8203,-0.10331 -1.33818,-0.15505 -0.53526,-0.0559 -1.04224,-0.10981 -1.52093,-0.16152 l -0.0587,-0.39409 4.89577,0 c 1.53184,1e-5 2.84172,0.0258 3.92967,0.0775 1.08795,0.0689 2.06058,0.20891 2.9179,0.41994 0.6745,0.17661 1.2163,0.43288 1.6254,0.76882 0.39599,0.33597 0.70062,0.7236 0.91387,1.16291 0.19582,0.44363 0.29374,0.88511 0.29375,1.32441 -1e-5,0.93465 -0.36556,1.86066 -1.09665,2.77806 -0.73113,0.93465 -1.58625,1.72068 -2.56539,2.35812 0.76589,1.35673 1.99529,3.27122 3.68815,5.74348 1.69283,2.46794 2.87869,3.99264 3.5576,4.57409 l -1.14888,0.1098 c -0.25242,-0.21536 -0.81598,-0.79035 -1.69067,-1.72498 -0.87038,-0.93464 -1.96486,-2.1686 -3.28343,-3.70193 -1.34039,-1.51607 -2.48271,-2.83834 -3.42705,-3.9668 -0.46129,0.0345 -0.95959,0.0604 -1.49484,0.0775 -0.5527,0.0172 -1.23811,0.0429 -2.05624,0.0775 z" />
    <path
       style="font-size:40px;font-style:normal;font-variant:normal;font-weight:normal;font-stretch:normal;line-height:125%;letter-spacing:0px;word-spacing:0px;fill:#000000;fill-opacity:1;stroke:none;font-family:Charlemagne;-inkscape-font-specification:Charlemagne"
       inkscape:connector-curvature="0"
       id="path3090"
       d="m 388.7002,572.1927 -0.11097,-0.3941 c 0.51785,0.0173 1.01831,0.0259 1.50137,0.0259 0.46128,0.0172 1.2272,0.043 2.29776,0.0775 1.14016,-0.0345 1.99528,-0.0602 2.56537,-0.0775 0.57008,1e-5 1.17715,-0.009 1.82124,-0.0259 l -0.16319,0.3941 c -0.40908,0.0344 -0.87255,0.0883 -1.3904,0.16151 -0.51789,0.0861 -0.99004,0.15508 -1.41651,0.20674 -0.0348,0.52979 -0.0872,3.29062 -0.15667,8.28248 0.0696,5.15126 0.12185,8.11667 0.15667,8.89624 0.8921,0.15506 1.82774,0.2692 2.80691,0.34243 l 0.16319,0.41993 c -0.50047,-0.0344 -1.02704,-0.0602 -1.57971,-0.0775 -0.57009,0 -1.17499,-0.009 -1.81471,-0.0259 -2.71118,0.0689 -4.30827,0.1033 -4.79132,0.1033 l 0.11097,-0.41994 c 1.47961,-0.17658 2.41526,-0.29073 2.80691,-0.34242 0.0696,-1.87357 0.10447,-4.8196 0.10447,-8.83808 0,-3.19583 -0.0348,-5.97604 -0.10447,-8.34063 -0.23066,-0.0518 -1.16629,-0.17442 -2.80691,-0.36826 z" />
    <path
       style="font-size:40px;font-style:normal;font-variant:normal;font-weight:normal;font-stretch:normal;line-height:125%;letter-spacing:0px;word-spacing:0px;fill:#000000;fill-opacity:1;stroke:none;font-family:Charlemagne;-inkscape-font-specification:Charlemagne"
       inkscape:connector-curvature="0"
       id="path3092"
       d="m 399.87563,590.50203 0.10447,-0.41993 c 0.21323,-0.0345 0.52438,-0.0796 0.93346,-0.13568 0.41341,-0.0516 0.87689,-0.1206 1.3904,-0.20675 0.23498,-1.05953 0.4504,-6.76854 0.64624,-17.12703 -0.10876,-0.0344 -0.60926,-0.0947 -1.50138,-0.1809 -0.88776,-0.0904 -1.37734,-0.13566 -1.46872,-0.13568 l -0.10447,-0.39408 c 2.83302,-0.0689 4.62379,-0.13997 5.3723,-0.21321 1.05313,1.41274 2.11279,2.79746 3.17899,4.15416 1.07054,1.37829 2.40872,3.0451 4.01454,5.0005 1.58405,1.97695 2.89284,3.60071 3.92642,4.87129 1.03353,1.2706 1.6047,2.00279 1.71352,2.1966 l 0.0521,0 c -2e-5,-8.51935 -0.11538,-13.63613 -0.34597,-15.35037 -0.94435,-0.19379 -1.94311,-0.31654 -2.99622,-0.36825 l -0.10447,-0.3941 c 0.67451,0.0173 1.29901,0.0259 1.87345,0.0259 0.55267,0.0172 1.22067,0.043 2.00402,0.0775 0.85292,-0.0345 1.49482,-0.0602 1.92565,-0.0775 0.42646,1e-5 0.89864,-0.009 1.41652,-0.0259 l -0.11096,0.3941 c -0.94435,0.14215 -1.67328,0.2649 -2.18677,0.36825 -0.14363,0.7796 -0.25244,2.20953 -0.3264,4.28983 -0.0872,2.08033 -0.14797,4.24032 -0.18277,6.47999 -0.0392,2.26122 -0.0849,5.21801 -0.13707,8.87039 -0.78336,-1.00785 -2.02144,-2.56055 -3.71428,-4.65808 -1.69286,-2.10185 -2.92223,-3.62009 -3.68815,-4.55472 -0.77027,-0.9174 -1.93003,-2.31935 -3.47926,-4.20586 -1.54926,-1.88648 -3.00277,-3.63298 -4.3605,-5.23953 0,2.64455 0.037,5.53674 0.11096,8.67656 0.0521,3.13987 0.14143,5.64658 0.26764,7.52014 0.26544,0.0861 1.32513,0.20028 3.17899,0.34243 l 0.0521,0.41993 c -0.63971,-0.0344 -1.25331,-0.0602 -1.8408,-0.0775 -0.5875,0 -1.22939,-0.009 -1.92567,-0.0259 -0.66149,0.0172 -1.26857,0.0259 -1.82124,0.0259 -0.57009,0.0172 -1.19239,0.0431 -1.86693,0.0775 z" />
    <path
       style="font-size:40px;font-style:normal;font-variant:normal;font-weight:normal;font-stretch:normal;line-height:125%;letter-spacing:0px;word-spacing:0px;fill:#000000;fill-opacity:1;stroke:none;font-family:Charlemagne;-inkscape-font-specification:Charlemagne"
       inkscape:connector-curvature="0"
       id="path3094"
       d="m 422.26566,590.56017 0.0521,-0.47807 c 0.19582,0 0.60707,-0.0539 1.23373,-0.16152 0.62232,-0.0861 0.97916,-0.14645 1.07056,-0.18091 0.12183,-0.15935 0.70062,-1.53546 1.73636,-4.12831 1.01396,-2.57562 2.03881,-5.21369 3.07455,-7.91424 1.01396,-2.7005 1.65585,-4.42979 1.92567,-5.18786 -0.64407,-0.12487 -1.37517,-0.2304 -2.1933,-0.31656 l 0,-0.45224 c 0.26544,0.0388 1.49484,0.0926 3.68814,0.16152 2.12368,-0.0689 3.29213,-0.12275 3.50537,-0.16152 l -0.11097,0.45224 c -0.49612,1e-5 -1.17282,0.10562 -2.03011,0.31656 0.7485,2.43351 1.90608,5.73272 3.47274,9.89764 1.55358,4.18217 2.56973,6.62643 3.04845,7.33277 0.0173,0.0172 0.39163,0.0787 1.12276,0.18414 0.73109,0.10551 1.12491,0.15829 1.18151,0.15829 l 0.0521,0.47807 c -0.23066,-0.0388 -1.58625,-0.0926 -4.06677,-0.16152 -2.0323,0.069 -3.3052,0.10331 -3.8187,0.10331 l 0.15667,-0.41993 c 1.07053,-0.0345 1.98005,-0.14861 2.72858,-0.34243 -3e-5,-0.0904 -0.41997,-1.3438 -1.25986,-3.76006 -0.83555,-2.41626 -1.35995,-3.83543 -1.57317,-4.25753 -0.96176,0 -3.12025,0.0861 -6.47549,0.25842 -0.10447,0.15937 -0.3438,0.8485 -0.71803,2.06739 -0.37427,1.2189 -0.72242,2.41842 -1.04444,3.59855 -0.28288,1.07677 -0.42431,1.74652 -0.4243,2.00925 -10e-6,0.0388 -10e-6,0.0667 0,0.084 0.96174,0.22828 1.63844,0.34243 2.03012,0.34243 l 0.10446,0.41993 c -0.23065,0 -1.2555,-0.0344 -3.07456,-0.10331 -2.11932,0.0689 -3.25079,0.12276 -3.3944,0.16152 z m 6.84757,-9.55522 c 0.67451,10e-6 1.63625,0.009 2.88524,0.0259 1.24895,0.0172 2.2738,0.0344 3.07455,0.0516 -2e-5,10e-6 -2e-5,10e-6 0,0 -2e-5,-0.0689 -0.46348,-1.41702 -1.39041,-4.04433 -0.96174,-2.66606 -1.46003,-4.03355 -1.49485,-4.10249 -0.10876,0.0861 -0.61796,1.33737 -1.52747,3.75362 -0.92695,2.4378 -1.44264,3.87637 -1.54706,4.31567 z" />
    <path
       style="font-size:40px;font-style:normal;font-variant:normal;font-weight:normal;font-stretch:normal;line-height:125%;letter-spacing:0px;word-spacing:0px;fill:#000000;fill-opacity:1;stroke:none;font-family:Charlemagne;-inkscape-font-specification:Charlemagne"
       inkscape:connector-curvature="0"
       id="path3096"
       d="m 460.02679,571.47557 c 0.35682,-0.0172 0.70499,-0.0258 1.04443,-0.0259 1.79728,2e-5 3.3748,0.28214 4.73259,0.84634 1.60144,0.68915 2.88305,1.66039 3.84482,2.91373 0.53525,0.68915 0.9454,1.47411 1.23047,2.35488 0.28503,0.88082 0.42754,1.83375 0.42757,2.85882 -3e-5,2.50241 -0.85515,4.77869 -2.56538,6.82885 -0.5353,0.65038 -1.22071,1.24905 -2.05623,1.79605 -0.85732,0.54698 -1.82126,0.97123 -2.89179,1.27275 -1.0836,0.31439 -2.19767,0.48237 -3.34218,0.50392 -0.19583,0 -0.39167,0 -0.58749,0 -2.86785,0 -5.2113,-0.7602 -7.03033,-2.28059 -2.06711,-1.7616 -3.12679,-4.0185 -3.179,-6.77072 0.0521,-1.9597 0.53308,-3.6976 1.44263,-5.21369 0.53526,-0.9174 1.23807,-1.74649 2.10844,-2.48733 0.85728,-0.7408 1.88216,-1.35025 3.07455,-1.82836 1.17933,-0.45653 2.42829,-0.71279 3.7469,-0.7688 z m -2.24554,1.13707 c -2.08452,0.42642 -3.64463,1.36319 -4.68035,2.81035 -1.05314,1.4472 -1.59712,3.06019 -1.63192,4.839 0.0173,0.17659 0.0717,0.66329 0.16318,1.46009 0.28287,1.53332 0.86166,2.87282 1.73637,4.01849 0.85729,1.16291 1.85604,2.0717 2.99622,2.72637 1.14017,0.6719 2.24551,1.09615 3.31607,1.27273 0.58749,0.0689 1.05096,0.11201 1.3904,0.12922 1.497,0 2.92223,-0.35317 4.27565,-1.05954 1.35339,-0.70635 2.39565,-1.79174 3.12676,-3.25614 0.53527,-1.07246 0.8029,-2.32365 0.80291,-3.75361 -1e-5,-0.51253 -0.0348,-1.0423 -0.10447,-1.58931 -0.074,-0.8657 -0.36883,-1.7831 -0.8845,-2.7522 -0.51572,-0.96908 -1.17609,-1.82404 -1.98117,-2.56486 -0.80073,-0.7408 -1.75378,-1.34162 -2.85911,-1.80251 -1.1228,-0.45653 -2.31737,-0.68481 -3.58372,-0.68482 -0.76594,10e-6 -1.46005,0.069 -2.08235,0.20674 z" />
    <path
       style="font-size:40px;font-style:normal;font-variant:normal;font-weight:normal;font-stretch:normal;line-height:125%;letter-spacing:0px;word-spacing:0px;fill:#000000;fill-opacity:1;stroke:none;font-family:Charlemagne;-inkscape-font-specification:Charlemagne"
       inkscape:connector-curvature="0"
       id="path3098"
       d="m 477.3709,572.50926 c -0.64407,-0.12487 -1.59711,-0.23901 -2.85914,-0.34241 l -0.11096,-0.36825 c 1.00091,0.0344 2.91786,0.0861 5.7509,0.15507 3.17247,-0.0518 5.38316,-0.13998 6.63215,-0.2649 l 0.29375,-1.79605 0.48305,-0.16152 c -0.0914,0.40489 -0.19149,1.43643 -0.30028,3.09463 -0.12187,1.65824 -0.1828,2.74362 -0.18277,3.25615 l -0.45694,-0.16152 c -10e-6,-0.45654 -0.0348,-1.16072 -0.10446,-2.11262 -3e-5,-0.0172 -3e-5,-0.0344 0,-0.0516 -3e-5,-0.26702 -0.84645,-0.54914 -2.53928,-0.84634 -1.83647,-0.30147 -3.21818,-0.45223 -4.14509,-0.45225 l -0.0521,0 c -0.1262,1.41274 -0.21542,3.08819 -0.26763,5.02635 0.0348,0.58146 0.0521,1.59578 0.0521,3.04293 0.23065,2e-5 0.47,2e-5 0.71805,0 0.7485,0.0173 1.59712,-0.0172 2.54582,-0.10331 1.26199,-0.10771 2.08884,-0.23257 2.48051,-0.37472 l 0.43083,-1.53116 0.3982,0 c -0.12188,0.58146 -0.21979,1.46226 -0.29375,2.64238 -0.0696,1.18445 -0.12188,2.20092 -0.15667,3.04941 l -0.43084,-0.16152 0,-0.36825 c -10e-6,-0.24981 -0.0174,-0.58576 -0.0521,-1.00785 -0.0348,-0.42209 -0.0521,-0.70421 -0.0521,-0.84634 -0.10876,-0.17658 -0.67888,-0.34456 -1.71026,-0.50394 -1.05314,-0.15935 -2.10628,-0.23902 -3.15941,-0.23903 l -0.71806,0 c 0,4.1477 0.0717,7.03343 0.21545,8.6572 0.12182,0.0172 0.37858,0.0516 0.77025,0.10331 0.39166,0.0518 0.74849,0.0947 1.07055,0.1292 0.32202,0.0559 0.64404,0.0926 0.9661,0.1098 l 0.10447,0.41995 c -0.12622,0 -1.31208,-0.0344 -3.55759,-0.10331 -2.7808,0.0689 -4.34093,0.12274 -4.68037,0.16152 l 0.11097,-0.4781 c 0.33943,-0.0345 0.82031,-0.0796 1.44261,-0.13568 0.60489,-0.0516 1.07708,-0.12059 1.41651,-0.20672 0.0741,-2.55841 0.11097,-5.40753 0.11097,-8.54738 -10e-6,-2.27842 -0.0544,-5.17278 -0.16321,-8.68303 z" />
    <path
       style="font-size:40px;font-style:normal;font-variant:normal;font-weight:normal;font-stretch:normal;line-height:125%;letter-spacing:0px;word-spacing:0px;fill:#000000;fill-opacity:1;stroke:none;font-family:Charlemagne;-inkscape-font-specification:Charlemagne"
       inkscape:connector-curvature="0"
       id="path3100"
       d="m 496.40657,576.45023 c 0.23065,-2.55838 0.34598,-4.49009 0.34598,-5.79515 l 0,-0.71067 c 0.0348,0.0173 0.21324,0.0431 0.53527,0.0775 0,0.75806 0.0544,1.35028 0.16319,1.77667 1.71026,0.1033 4.52587,0.18952 8.44685,0.25842 3.01144,-0.0516 6.12949,-0.1378 9.35421,-0.25842 0.0392,-0.0731 0.11096,-0.33809 0.21541,-0.79466 0.10876,-0.46084 0.18058,-0.75371 0.21542,-0.87864 0.17839,-0.0689 0.34811,-0.10331 0.50914,-0.10331 -0.16103,0.72361 -0.33075,1.88005 -0.50914,3.46935 -0.17846,1.60224 -0.30248,2.65101 -0.37209,3.1463 -0.10876,-0.0172 -0.26982,-0.0602 -0.48305,-0.12921 0.0173,-0.31871 0.0348,-0.6202 0.0522,-0.90448 -2e-5,-0.26272 -2e-5,-0.64173 0,-1.13707 l 0,-0.87218 c -0.40909,-0.22825 -1.11191,-0.41346 -2.10847,-0.5556 -1.01832,-0.14212 -2.02576,-0.23903 -3.02231,-0.29073 -1.01834,-0.0516 -1.84735,-0.0775 -2.48706,-0.0775 -0.0173,0.54702 -0.0348,1.49026 -0.0521,2.82974 -0.0392,1.35674 -0.0762,3.0688 -0.11097,5.13618 0.0741,4.83253 0.12838,7.86685 0.1632,9.10297 1.30118,0.15506 2.45006,0.2692 3.44664,0.34242 l 0.11096,0.41994 c -0.17845,-0.0172 -0.54399,-0.0344 -1.09665,-0.0516 -0.57011,0 -1.20329,-0.009 -1.89956,-0.0259 -0.6963,0 -1.26638,-0.009 -1.71027,-0.0259 -0.43083,0.0172 -0.98351,0.0259 -1.65802,0.0259 -0.69632,0.0172 -1.32951,0.0259 -1.89958,0.0259 -0.5701,0.0172 -0.95305,0.0344 -1.14887,0.0516 l 0.15666,-0.41994 c 1.99746,-0.1766 3.12894,-0.29072 3.3944,-0.34242 0.074,-2.43779 0.11096,-5.57979 0.11096,-9.42601 -10e-6,-3.22597 -0.037,-5.77361 -0.11096,-7.64288 -4.06024,0.0516 -6.58209,0.35965 -7.5656,0.92385 -0.0872,0.2283 -0.26546,1.12848 -0.53528,2.70055 -0.26546,0.0689 -0.4156,0.12061 -0.45041,0.15505 z" />
    <path
       style="font-size:40px;font-style:normal;font-variant:normal;font-weight:normal;font-stretch:normal;line-height:125%;letter-spacing:0px;word-spacing:0px;fill:#000000;fill-opacity:1;stroke:none;font-family:Charlemagne;-inkscape-font-specification:Charlemagne"
       inkscape:connector-curvature="0"
       id="path3102"
       d="m 517.56286,572.1927 -0.11097,-0.3941 c 0.51787,0.0173 1.01833,0.0259 1.50137,0.0259 0.46129,0.0172 1.22721,0.043 2.29776,0.0775 1.14016,-0.0345 1.99529,-0.0602 2.56539,-0.0775 0.57007,1e-5 1.17715,-0.009 1.82123,-0.0259 l -0.1632,0.3941 c -0.40908,0.0344 -0.87254,0.0883 -1.3904,0.16151 -0.51786,0.0861 -0.99005,0.15508 -1.41652,0.20674 -0.0348,0.52979 -0.087,3.29062 -0.15665,8.28248 0.0697,5.15126 0.12183,8.11667 0.15665,8.89624 0.89212,0.15506 1.82776,0.2692 2.80692,0.34243 l 0.1632,0.41993 c -0.50047,-0.0344 -1.02703,-0.0602 -1.5797,-0.0775 -0.5701,0 -1.17501,-0.009 -1.81472,-0.0259 -2.71116,0.0689 -4.30827,0.1033 -4.79133,0.1033 l 0.11097,-0.41994 c 1.47961,-0.17658 2.41526,-0.29073 2.80692,-0.34242 0.0696,-1.87357 0.10446,-4.8196 0.10446,-8.83808 -10e-6,-3.19583 -0.0348,-5.97604 -0.10446,-8.34063 -0.23064,-0.0518 -1.16628,-0.17442 -2.80692,-0.36826 z" />
    <path
       style="font-size:40px;font-style:normal;font-variant:normal;font-weight:normal;font-stretch:normal;line-height:125%;letter-spacing:0px;word-spacing:0px;fill:#000000;fill-opacity:1;stroke:none;font-family:Charlemagne;-inkscape-font-specification:Charlemagne"
       inkscape:connector-curvature="0"
       id="path3104"
       d="m 530.98384,572.1927 -0.11096,-0.3941 c 0.51786,0.0173 1.00091,0.0259 1.44915,0.0259 0.44388,0.0172 1.05748,0.043 1.84082,0.0775 0.96174,-0.0345 1.68412,-0.0602 2.1672,-0.0775 0.46127,1e-5 0.95085,-0.009 1.46872,-0.0259 l -0.0521,0.3941 c -0.19583,0.0172 -0.82031,0.14 -1.87345,0.36825 0.71368,2.11909 1.60581,4.60749 2.67636,7.46521 1.07052,2.85776 1.89084,5.02744 2.46094,6.50906 0.0348,-0.0689 0.20452,-0.48455 0.50915,-1.24688 0.30027,-0.74083 0.86166,-2.08031 1.68417,-4.0185 0.8007,-1.94248 1.54051,-3.76868 2.21941,-5.47858 0.65711,-1.70989 1.06616,-2.78666 1.22723,-3.23031 -0.74854,-0.17656 -1.39914,-0.29932 -1.95181,-0.36825 l -0.10446,-0.3941 c 0.47867,0.0173 0.93128,0.0259 1.35776,0.0259 0.4134,0.0172 0.93996,0.043 1.57971,0.0775 2.14108,-0.0689 3.30951,-0.10331 3.50538,-0.10331 l -0.0522,0.39409 c -0.12622,3e-5 -0.43954,0.0355 -0.93998,0.10656 -0.50048,0.071 -0.90084,0.1583 -1.20109,0.26164 0.60487,3.0882 1.81685,8.81443 3.63592,17.17874 0.81813,0.22827 1.51222,0.34241 2.08234,0.34241 l 0.16319,0.47809 c -0.4091,-0.0388 -1.67548,-0.0926 -3.79912,-0.16151 -1.81471,0.0689 -3.07021,0.1033 -3.76648,0.1033 l 0.0521,-0.41995 c 1.62321,-0.14214 2.59364,-0.25627 2.91136,-0.34241 -0.12188,-0.86572 -0.30901,-2.03078 -0.5614,-3.49519 -0.24805,-1.44717 -0.4352,-2.48733 -0.56137,-3.12046 -0.13928,-0.63743 -0.43303,-2.04154 -0.88124,-4.2123 -0.44389,-2.14921 -0.78117,-3.77944 -1.0118,-4.89068 l -6.84756,16.27424 -6.09688,-16.59728 -0.10446,0.0581 c -0.64409,2.80391 -1.25116,5.99545 -1.82123,9.57461 -0.47872,3.01926 -0.71806,5.01343 -0.71805,5.9825 -10e-6,0.1766 0.009,0.31874 0.0261,0.42641 0.21324,0.0172 0.46128,0.0431 0.74415,0.0775 0.28723,0.0345 0.53745,0.0604 0.75069,0.0775 0.19584,0.0344 0.43734,0.071 0.72458,0.1098 0.28286,0.0344 0.4961,0.0602 0.63971,0.0775 l 0.10446,0.41995 c -0.4613,0 -1.81471,-0.0345 -4.06024,-0.1033 -0.50047,0.0172 -0.96391,0.0258 -1.39039,0.0258 -0.44826,0.0172 -0.93782,0.0431 -1.46875,0.0775 l 0.0521,-0.41995 c 0.161,-0.0516 0.38295,-0.0968 0.66582,-0.13567 0.2698,-0.0345 0.74197,-0.1033 1.41651,-0.20674 0.21323,-0.65468 0.7485,-3.072 1.60581,-7.25201 0.8573,-4.18 1.53401,-7.4889 2.03012,-9.9267 -0.57008,-0.15935 -1.36211,-0.2821 -2.37609,-0.36827 z" />
    <path
       style="font-size:40px;font-style:normal;font-variant:normal;font-weight:normal;font-stretch:normal;line-height:125%;letter-spacing:0px;word-spacing:0px;fill:#000000;fill-opacity:1;stroke:none;font-family:Charlemagne;-inkscape-font-specification:Charlemagne"
       inkscape:connector-curvature="0"
       id="path3106"
       d="m 559.58824,572.56095 c -0.43083,-0.1033 -0.87689,-0.18303 -1.33818,-0.23904 -0.48307,-0.0518 -0.95523,-0.0947 -1.41652,-0.12921 l -0.1632,-0.3941 c 0.8399,0.0344 2.70248,0.0861 5.58773,0.15507 3.01143,-0.0518 5.15034,-0.13998 6.41673,-0.2649 l 0.21542,-1.24043 0.39819,-0.1098 c -0.15669,1.53764 -0.27201,2.73715 -0.34597,3.59853 -0.0696,0.86574 -0.12188,1.49242 -0.15668,1.88005 l -0.43082,-0.2132 0,-1.90589 c -2e-5,3e-5 -2e-5,3e-5 0,0 -2e-5,-0.38761 -0.82903,-0.69557 -2.48706,-0.92386 -1.67544,-0.21102 -2.96792,-0.31655 -3.87745,-0.31657 -0.14363,2.30861 -0.21543,4.92729 -0.21542,7.85609 2.71116,1e-5 4.68254,-0.14859 5.9141,-0.44577 l 0.26764,-1.13707 0.39819,-0.0582 c -0.0871,0.52978 -0.19366,1.3072 -0.31986,2.33227 -0.14363,1.04233 -0.25895,1.88006 -0.34597,2.51317 l -0.3786,-0.21319 c 0.0173,-0.29718 0.0348,-0.57068 0.0521,-0.8205 -10e-6,-0.2455 -10e-6,-0.55344 0,-0.92386 -0.74851,-0.43932 -2.46748,-0.65898 -5.15687,-0.65898 l -0.43085,0 c -10e-6,0.37043 -0.0173,0.71282 -0.0521,1.02723 0.0173,0.81405 0.0631,2.05879 0.13707,3.73423 0.0522,1.67545 0.0784,3.05155 0.0784,4.12832 3.88614,0 6.18606,-0.35318 6.89979,-1.05954 -3e-5,-0.0518 0.0609,-0.35102 0.18276,-0.89802 0.12619,-0.547 0.21541,-1.01431 0.26764,-1.40196 l 0.59403,-0.21318 c -0.16104,0.63313 -0.35033,1.66468 -0.56791,3.09462 -0.21327,1.42994 -0.33729,2.44426 -0.37209,3.04294 l -0.42431,-0.10331 -0.0587,-1.48593 c -0.24806,-0.17659 -2.42179,-0.29934 -6.52118,-0.36825 -2.99404,0.0689 -4.73259,0.12274 -5.21563,0.16151 l 0.11096,-0.47808 c 1.26203,-0.10772 2.19766,-0.22182 2.80692,-0.34242 0.0696,-3.03647 0.10447,-6.09019 0.10447,-9.16112 -2e-5,-3.01494 -0.0521,-5.68747 -0.15667,-8.01761 z" />
  </g>
</svg>
